<svg xmlns="http://www.w3.org/2000/svg" id="canvas" viewBox="289.090 353.587 1202.221 142.218">
    <path
        d="M 326.46,373.19 C 325.24 374.38, 323.75 376.34, 322.08 380.08 C 320.42 383.82, 319.87 386.59, 318.14 391.89 C 316.42 397.19, 315.28 400.74, 313.44 406.58 C 311.60 412.42, 310.64 415.35, 308.94 421.10 C 307.24 426.85, 306.64 429.75, 304.96 435.33 C 303.28 440.92, 302.24 443.85, 300.54 449.03 C 298.84 454.21, 297.89 456.74, 296.45 461.25 C 295.02 465.75, 294.23 467.92, 293.36 471.56 C 292.49 475.21, 292.09 476.94, 292.09 479.46 C 292.08 481.98, 292.75 482.80, 293.33 484.16 C 293.91 485.52, 294.35 485.80, 294.98 486.24 C 295.60 486.69, 296.11 486.54, 296.46 486.39 C 296.81 486.24, 296.75 485.76, 296.73 485.50 C 296.70 485.23, 296.45 485.51, 296.33 485.08 C 296.22 484.66, 296.25 484.49, 296.15 483.38 C 296.04 482.27, 295.71 481.76, 295.80 479.54 C 295.89 477.31, 295.93 475.76, 296.59 472.25 C 297.24 468.75, 297.82 466.52, 299.07 462.03 C 300.32 457.53, 301.24 454.98, 302.85 449.77 C 304.46 444.56, 305.48 441.58, 307.13 435.98 C 308.79 430.38, 309.39 427.48, 311.13 421.75 C 312.87 416.03, 313.89 413.15, 315.83 407.36 C 317.76 401.56, 318.99 398.00, 320.80 392.78 C 322.60 387.56, 323.38 384.98, 324.86 381.25 C 326.34 377.53, 327.89 375.77, 328.21 374.15 C 328.53 372.54, 327.69 372.01, 326.46 373.19"
        style="stroke: #f2f5f4; fill: #f2f5f4;"/>
    <path
        d="M 325.72,367.17 C 326.52 367.27, 327.14 366.76, 328.50 366.18 C 329.86 365.61, 330.44 365.19, 332.50 364.29 C 334.57 363.39, 335.83 362.47, 338.82 361.69 C 341.80 360.90, 343.58 360.61, 347.43 360.38 C 351.28 360.14, 353.71 360.18, 358.06 360.52 C 362.42 360.85, 364.94 361.19, 369.21 362.07 C 373.48 362.94, 375.66 363.45, 379.42 364.90 C 383.17 366.36, 385.09 367.37, 388.00 369.35 C 390.91 371.33, 392.17 372.61, 393.98 374.79 C 395.80 376.97, 396.44 378.08, 397.07 380.24 C 397.70 382.40, 397.66 383.33, 397.15 385.58 C 396.63 387.84, 396.24 389.01, 394.50 391.51 C 392.75 394.00, 391.45 395.36, 388.43 398.07 C 385.41 400.78, 383.42 402.34, 379.39 405.06 C 375.35 407.78, 372.79 409.24, 368.25 411.66 C 363.70 414.09, 361.04 415.30, 356.67 417.17 C 352.30 419.04, 350.01 419.82, 346.39 421.01 C 342.77 422.20, 340.84 422.32, 338.58 423.11 C 336.33 423.91, 335.94 424.57, 335.12 424.97 C 334.29 425.38, 334.64 425.02, 334.46 425.15 C 334.27 425.28, 334.02 425.28, 334.18 425.62 C 334.34 425.95, 334.19 426.59, 335.28 426.83 C 336.37 427.07, 337.18 427.36, 339.63 426.83 C 342.08 426.29, 343.87 425.56, 347.51 424.16 C 351.15 422.76, 353.43 421.82, 357.84 419.82 C 362.25 417.82, 364.93 416.61, 369.57 414.17 C 374.22 411.72, 376.83 410.29, 381.05 407.59 C 385.27 404.90, 387.35 403.45, 390.68 400.69 C 394.01 397.93, 395.63 396.65, 397.71 393.80 C 399.79 390.96, 400.47 389.38, 401.09 386.44 C 401.71 383.51, 401.64 381.97, 400.80 379.14 C 399.97 376.31, 399.10 374.84, 396.91 372.30 C 394.73 369.77, 393.15 368.55, 389.88 366.48 C 386.61 364.40, 384.55 363.43, 380.55 361.93 C 376.54 360.43, 374.29 359.92, 369.86 358.98 C 365.42 358.04, 362.87 357.68, 358.37 357.21 C 353.86 356.73, 351.44 356.62, 347.33 356.60 C 343.22 356.58, 341.25 356.51, 337.84 357.10 C 334.42 357.68, 332.61 358.36, 330.27 359.53 C 327.93 360.69, 327.30 361.67, 326.14 362.90 C 324.98 364.14, 324.55 364.85, 324.47 365.70 C 324.38 366.55, 324.91 367.07, 325.72 367.17"
        style="stroke: #f2f5f4; fill: #f2f5f4;"/>
    <path
        d="M 424.06,427.19 C 422.88 427.69, 421.57 428.63, 419.65 430.92 C 417.73 433.21, 416.74 435.15, 414.46 438.63 C 412.18 442.11, 410.55 444.34, 408.26 448.33 C 405.97 452.32, 404.99 454.81, 403.01 458.58 C 401.03 462.35, 399.86 464.20, 398.36 467.17 C 396.86 470.13, 396.18 471.38, 395.50 473.39 C 394.81 475.41, 394.80 476.37, 394.92 477.24 C 395.04 478.10, 395.43 478.22, 396.11 477.72 C 396.78 477.22, 397.17 476.50, 398.30 474.74 C 399.43 472.99, 400.21 471.85, 401.76 468.93 C 403.30 466.00, 404.12 463.90, 406.02 460.13 C 407.92 456.36, 408.94 453.96, 411.26 450.09 C 413.58 446.22, 415.27 444.11, 417.62 440.77 C 419.96 437.43, 421.39 435.86, 422.98 433.38 C 424.58 430.91, 425.36 429.64, 425.57 428.40 C 425.79 427.17, 425.25 426.69, 424.06 427.19"
        style="stroke: #f2f5f4; fill: #f2f5f4;"/>
    <path
        d="M 440.87,390.57 C 440.75 390.10, 440.35 390.09, 440.21 390.56 C 440.07 391.02, 440.04 392.44, 440.17 392.91 C 440.29 393.38, 440.68 393.39, 440.82 392.92 C 440.96 392.45, 440.99 391.04, 440.87 390.57"
        style="stroke: #f2f5f4; fill: #f2f5f4;"/>
    <path
        d="M 466.40,430.05 C 465.61 430.60, 465.21 431.66, 464.35 433.41 C 463.48 435.16, 463.21 435.96, 462.08 438.78 C 460.94 441.60, 460.39 443.96, 458.66 447.52 C 456.93 451.09, 455.64 453.15, 453.45 456.60 C 451.25 460.05, 449.72 462.00, 447.68 464.78 C 445.63 467.55, 444.13 468.78, 443.22 470.46 C 442.31 472.13, 442.53 473.04, 443.13 473.14 C 443.74 473.24, 444.64 472.86, 446.27 470.95 C 447.90 469.05, 448.71 467.12, 451.26 463.60 C 453.82 460.09, 455.56 457.49, 459.05 453.38 C 462.54 449.27, 464.88 446.86, 468.71 443.05 C 472.55 439.25, 474.54 437.32, 478.23 434.37 C 481.91 431.43, 483.86 430.20, 487.15 428.33 C 490.43 426.45, 492.19 425.87, 494.65 425.00 C 497.12 424.14, 497.86 423.91, 499.46 423.98 C 501.06 424.06, 501.67 424.47, 502.65 425.37 C 503.64 426.26, 503.99 426.79, 504.39 428.45 C 504.78 430.10, 504.83 431.28, 504.63 433.64 C 504.42 436.01, 504.18 437.53, 503.37 440.28 C 502.55 443.04, 501.87 444.69, 500.55 447.43 C 499.23 450.17, 498.11 451.66, 496.76 453.98 C 495.41 456.30, 494.64 457.51, 493.82 459.04 C 493.00 460.57, 492.87 460.84, 492.66 461.64 C 492.45 462.44, 492.37 462.76, 492.76 463.06 C 493.15 463.35, 493.62 463.50, 494.60 463.13 C 495.59 462.77, 496.08 462.55, 497.66 461.23 C 499.24 459.90, 500.06 458.83, 502.51 456.53 C 504.97 454.22, 506.51 452.48, 509.95 449.70 C 513.38 446.92, 515.74 445.33, 519.70 442.62 C 523.67 439.91, 525.88 438.23, 529.77 436.14 C 533.66 434.04, 535.81 433.16, 539.15 432.13 C 542.48 431.10, 544.02 431.13, 546.46 430.99 C 548.90 430.84, 549.89 430.76, 551.34 431.41 C 552.79 432.06, 553.06 432.71, 553.71 434.25 C 554.36 435.79, 554.58 436.96, 554.59 439.11 C 554.60 441.27, 554.32 442.42, 553.76 445.02 C 553.21 447.62, 552.72 449.27, 551.82 452.11 C 550.91 454.96, 550.14 456.53, 549.25 459.24 C 548.35 461.96, 547.73 463.38, 547.36 465.69 C 546.99 468.00, 547.06 469.09, 547.42 470.79 C 547.78 472.49, 548.32 473.27, 549.16 474.19 C 550.00 475.11, 550.92 475.41, 551.62 475.39 C 552.32 475.37, 552.66 474.69, 552.66 474.10 C 552.65 473.52, 551.94 473.22, 551.60 472.47 C 551.26 471.71, 550.96 471.50, 550.95 470.34 C 550.95 469.18, 550.99 468.56, 551.59 466.67 C 552.20 464.78, 553.04 463.52, 554.00 460.90 C 554.96 458.28, 555.47 456.55, 556.41 453.57 C 557.36 450.60, 558.16 448.98, 558.73 446.02 C 559.30 443.07, 559.59 441.53, 559.27 438.80 C 558.96 436.08, 558.46 434.49, 557.17 432.39 C 555.87 430.30, 554.96 429.40, 552.79 428.34 C 550.61 427.29, 549.22 427.02, 546.28 427.13 C 543.34 427.24, 541.68 427.64, 538.08 428.90 C 534.48 430.15, 532.31 431.18, 528.28 433.40 C 524.25 435.61, 522.04 437.30, 517.94 439.98 C 513.83 442.65, 511.46 444.20, 507.75 446.78 C 504.05 449.36, 502.16 450.76, 499.41 452.87 C 496.67 454.98, 495.57 455.75, 494.04 457.32 C 492.51 458.90, 492.11 459.53, 491.76 460.73 C 491.42 461.93, 491.77 462.80, 492.30 463.34 C 492.84 463.87, 493.49 463.78, 494.44 463.41 C 495.40 463.03, 495.76 462.82, 497.09 461.46 C 498.41 460.10, 499.54 459.02, 501.08 456.61 C 502.61 454.20, 503.38 452.40, 504.76 449.42 C 506.15 446.44, 507.01 444.82, 508.01 441.72 C 509.00 438.62, 509.64 436.87, 509.74 433.93 C 509.83 430.99, 509.46 429.27, 508.47 427.01 C 507.49 424.75, 506.56 423.90, 504.82 422.63 C 503.07 421.36, 502.03 420.90, 499.74 420.65 C 497.45 420.39, 496.22 420.36, 493.37 421.36 C 490.53 422.36, 488.89 423.47, 485.52 425.64 C 482.14 427.82, 480.23 429.14, 476.49 432.23 C 472.74 435.32, 470.75 437.28, 466.80 441.10 C 462.85 444.92, 460.45 447.29, 456.73 451.32 C 453.00 455.34, 450.98 457.76, 448.17 461.23 C 445.37 464.69, 443.84 466.28, 442.71 468.66 C 441.57 471.04, 441.90 472.32, 442.50 473.12 C 443.09 473.93, 443.98 473.87, 445.67 472.69 C 447.36 471.52, 448.76 470.08, 450.95 467.26 C 453.14 464.45, 454.35 462.19, 456.62 458.62 C 458.89 455.05, 460.30 453.02, 462.30 449.41 C 464.29 445.80, 465.42 443.53, 466.59 440.58 C 467.76 437.62, 467.78 436.62, 468.13 434.63 C 468.47 432.64, 468.65 431.54, 468.31 430.62 C 467.96 429.71, 467.19 429.49, 466.40 430.05"
        style="stroke: #f2f5f4; fill: #f2f5f4;"/>
    <path
        d="M 601.24,429.05 C 600.51 429.64, 600.30 430.49, 599.46 432.28 C 598.61 434.07, 598.07 435.45, 597.01 437.98 C 595.94 440.50, 595.36 442.08, 594.14 444.90 C 592.92 447.73, 592.11 449.50, 590.92 452.09 C 589.74 454.68, 589.33 455.79, 588.21 457.84 C 587.08 459.88, 586.18 460.69, 585.28 462.33 C 584.39 463.97, 583.81 464.86, 583.73 466.03 C 583.65 467.21, 584.08 467.99, 584.87 468.22 C 585.67 468.45, 586.34 468.25, 587.70 467.19 C 589.06 466.14, 589.92 465.26, 591.66 462.93 C 593.40 460.60, 594.12 458.75, 596.39 455.54 C 598.67 452.34, 600.14 450.22, 603.04 446.89 C 605.93 443.56, 607.78 441.76, 610.87 438.90 C 613.97 436.05, 615.63 434.70, 618.50 432.60 C 621.38 430.51, 623.04 429.66, 625.26 428.43 C 627.49 427.20, 628.42 426.67, 629.63 426.46 C 630.84 426.24, 631.05 426.44, 631.31 427.38 C 631.56 428.31, 631.37 429.04, 630.92 431.13 C 630.46 433.22, 630.10 434.79, 629.02 437.81 C 627.93 440.83, 627.12 442.96, 625.49 446.23 C 623.87 449.51, 622.68 451.37, 620.91 454.21 C 619.14 457.04, 617.75 458.32, 616.66 460.40 C 615.57 462.49, 615.44 463.52, 615.48 464.63 C 615.52 465.75, 615.81 466.21, 616.86 465.99 C 617.91 465.77, 618.96 465.36, 620.71 463.53 C 622.45 461.70, 623.19 459.89, 625.56 456.84 C 627.94 453.78, 629.20 451.67, 632.58 448.25 C 635.95 444.83, 638.46 442.72, 642.44 439.74 C 646.43 436.76, 648.68 435.34, 652.49 433.34 C 656.29 431.35, 658.30 430.67, 661.46 429.76 C 664.61 428.85, 666.12 428.73, 668.27 428.80 C 670.43 428.86, 671.21 429.22, 672.23 430.10 C 673.26 430.99, 673.48 431.47, 673.38 433.21 C 673.29 434.96, 672.78 436.17, 671.77 438.81 C 670.76 441.46, 670.00 443.40, 668.32 446.44 C 666.64 449.49, 665.39 451.21, 663.35 454.02 C 661.30 456.84, 659.72 458.18, 658.11 460.53 C 656.50 462.88, 656.04 464.11, 655.29 465.78 C 654.55 467.45, 654.35 468.11, 654.37 468.86 C 654.39 469.62, 654.70 469.81, 655.40 469.56 C 656.10 469.30, 656.59 468.84, 657.88 467.59 C 659.17 466.34, 660.07 465.53, 661.86 463.31 C 663.64 461.08, 664.74 459.41, 666.79 456.47 C 668.84 453.53, 670.22 451.83, 672.11 448.61 C 674.00 445.40, 675.24 443.52, 676.26 440.39 C 677.28 437.26, 677.60 435.49, 677.21 432.96 C 676.83 430.42, 676.09 429.28, 674.35 427.71 C 672.61 426.15, 671.28 425.37, 668.50 425.12 C 665.73 424.88, 663.96 425.38, 660.46 426.49 C 656.97 427.59, 655.01 428.49, 651.05 430.66 C 647.09 432.83, 644.82 434.30, 640.66 437.33 C 636.51 440.37, 633.95 442.51, 630.27 445.84 C 626.59 449.17, 624.98 451.09, 622.24 453.98 C 619.50 456.87, 617.95 458.12, 616.57 460.30 C 615.18 462.49, 615.18 463.81, 615.31 464.90 C 615.44 465.99, 616.19 466.16, 617.22 465.75 C 618.24 465.34, 618.94 464.70, 620.42 462.85 C 621.89 460.99, 622.83 459.41, 624.60 456.47 C 626.38 453.54, 627.52 451.57, 629.30 448.17 C 631.08 444.77, 632.26 442.77, 633.51 439.46 C 634.75 436.16, 635.44 434.34, 635.51 431.64 C 635.59 428.94, 635.04 427.60, 633.87 425.95 C 632.70 424.31, 631.76 423.67, 629.66 423.42 C 627.56 423.17, 626.02 423.45, 623.36 424.72 C 620.70 425.99, 619.30 427.43, 616.35 429.77 C 613.40 432.12, 611.79 433.51, 608.61 436.46 C 605.43 439.42, 603.54 441.25, 600.44 444.54 C 597.34 447.84, 595.77 449.95, 593.12 452.95 C 590.47 455.94, 588.98 457.20, 587.18 459.54 C 585.38 461.87, 584.71 463.01, 584.14 464.64 C 583.56 466.27, 583.87 467.10, 584.33 467.69 C 584.78 468.27, 585.47 468.15, 586.40 467.56 C 587.33 466.96, 587.83 466.22, 588.97 464.72 C 590.11 463.22, 590.83 462.17, 592.09 460.07 C 593.35 457.97, 593.94 456.81, 595.28 454.21 C 596.61 451.60, 597.39 449.88, 598.78 447.04 C 600.17 444.20, 601.23 442.75, 602.22 440.02 C 603.21 437.29, 603.57 435.53, 603.75 433.40 C 603.92 431.26, 603.60 430.20, 603.09 429.33 C 602.59 428.46, 601.96 428.46, 601.24 429.05"
        style="stroke: #f2f5f4; fill: #f2f5f4;"/>
    <path
        d="M 693.81,453.48 C 693.90 454.12, 694.02 454.65, 695.09 455.29 C 696.16 455.92, 696.96 456.52, 699.16 456.66 C 701.37 456.79, 702.90 456.65, 706.11 455.97 C 709.32 455.28, 711.44 454.56, 715.22 453.23 C 719.01 451.89, 721.34 450.93, 725.03 449.32 C 728.71 447.70, 730.56 446.80, 733.65 445.16 C 736.75 443.53, 738.38 442.97, 740.50 441.16 C 742.62 439.34, 743.71 438.04, 744.26 436.07 C 744.82 434.10, 744.55 432.85, 743.26 431.30 C 741.96 429.75, 740.64 428.82, 737.79 428.32 C 734.94 427.82, 732.91 427.96, 729.01 428.80 C 725.10 429.63, 722.77 430.60, 718.28 432.51 C 713.78 434.42, 710.97 435.61, 706.53 438.35 C 702.09 441.09, 699.62 442.89, 696.08 446.23 C 692.53 449.57, 690.99 451.60, 688.82 455.07 C 686.65 458.54, 685.62 460.28, 685.23 463.59 C 684.83 466.90, 685.28 468.88, 686.85 471.60 C 688.41 474.32, 689.95 475.53, 693.05 477.19 C 696.15 478.84, 698.14 479.28, 702.34 479.87 C 706.54 480.46, 709.06 480.39, 714.03 480.13 C 719.00 479.88, 721.88 479.51, 727.18 478.58 C 732.49 477.65, 735.21 477.06, 740.54 475.48 C 745.88 473.90, 749.14 472.59, 753.86 470.70 C 758.58 468.81, 761.00 467.74, 764.16 466.03 C 767.33 464.32, 768.73 463.18, 769.69 462.14 C 770.65 461.11, 770.34 460.60, 768.97 460.86 C 767.61 461.11, 766.11 461.98, 762.88 463.43 C 759.64 464.88, 757.42 466.18, 752.80 468.09 C 748.18 470.00, 745.01 471.42, 739.80 472.98 C 734.59 474.55, 731.91 475.10, 726.74 475.92 C 721.56 476.75, 718.69 477.00, 713.91 477.11 C 709.14 477.21, 706.68 477.12, 702.87 476.47 C 699.05 475.81, 697.40 475.18, 694.84 473.83 C 692.27 472.47, 691.28 471.66, 690.06 469.69 C 688.84 467.73, 688.44 466.59, 688.73 464.00 C 689.02 461.40, 689.64 459.84, 691.51 456.72 C 693.38 453.59, 694.79 451.52, 698.10 448.36 C 701.41 445.19, 703.78 443.43, 708.07 440.87 C 712.35 438.32, 715.16 437.19, 719.50 435.58 C 723.84 433.97, 726.20 433.35, 729.74 432.83 C 733.29 432.30, 734.91 432.82, 737.22 432.95 C 739.54 433.08, 740.46 433.07, 741.32 433.46 C 742.19 433.85, 742.23 434.01, 741.54 434.88 C 740.85 435.76, 739.84 436.46, 737.89 437.82 C 735.94 439.19, 734.66 440.12, 731.79 441.71 C 728.91 443.31, 727.08 444.30, 723.52 445.80 C 719.95 447.30, 717.64 448.21, 713.97 449.21 C 710.30 450.20, 708.15 450.35, 705.18 450.78 C 702.20 451.21, 700.92 451.14, 699.08 451.34 C 697.23 451.55, 696.85 451.64, 695.96 451.79 C 695.06 451.94, 695.04 451.75, 694.61 452.09 C 694.18 452.42, 693.71 452.84, 693.81 453.48"
        style="stroke: #f2f5f4; fill: #f2f5f4;"/>
    <path
        d="M 801.39,389.86 C 800.71 390.39, 800.31 390.91, 799.66 392.82 C 799.00 394.74, 798.96 396.09, 798.10 399.44 C 797.24 402.78, 796.79 405.16, 795.35 409.55 C 793.92 413.94, 792.81 416.57, 790.91 421.37 C 789.01 426.17, 787.90 428.83, 785.84 433.56 C 783.79 438.29, 782.41 440.75, 780.62 445.04 C 778.82 449.34, 778.05 451.44, 776.87 455.02 C 775.69 458.60, 775.14 460.24, 774.73 462.95 C 774.32 465.66, 774.58 466.79, 774.83 468.58 C 775.09 470.37, 775.51 471.26, 776.02 471.88 C 776.53 472.51, 777.04 472.38, 777.40 471.72 C 777.75 471.05, 777.56 470.19, 777.80 468.57 C 778.05 466.94, 778.17 466.10, 778.61 463.59 C 779.06 461.07, 779.11 459.46, 780.05 455.97 C 780.99 452.48, 781.63 450.39, 783.30 446.13 C 784.96 441.87, 786.31 439.39, 788.37 434.66 C 790.44 429.94, 791.56 427.28, 793.62 422.49 C 795.68 417.71, 796.90 415.14, 798.66 410.76 C 800.43 406.38, 801.45 404.04, 802.43 400.61 C 803.41 397.18, 803.44 395.67, 803.57 393.59 C 803.69 391.50, 803.50 390.93, 803.06 390.19 C 802.62 389.44, 802.07 389.34, 801.39 389.86"
        style="stroke: #f2f5f4; fill: #f2f5f4;"/>
    <path
        d="M 836.47,446.26 C 837.24 446.17, 837.67 445.62, 838.27 445.05 C 838.88 444.49, 839.17 444.04, 839.51 443.46 C 839.84 442.87, 839.71 442.37, 839.94 442.14 C 840.18 441.91, 840.37 442.15, 840.69 442.30 C 841.00 442.44, 841.33 442.14, 841.53 442.86 C 841.72 443.58, 841.54 444.46, 841.66 445.92 C 841.79 447.37, 842.13 448.33, 842.17 450.15 C 842.21 451.96, 842.11 453.02, 841.87 454.99 C 841.63 456.95, 841.43 458.15, 840.98 459.98 C 840.53 461.80, 839.82 462.57, 839.61 464.11 C 839.41 465.66, 839.41 466.72, 839.95 467.70 C 840.49 468.67, 841.20 469.11, 842.31 468.99 C 843.42 468.88, 844.11 468.48, 845.50 467.12 C 846.88 465.75, 847.62 464.52, 849.25 462.14 C 850.89 459.77, 851.53 458.00, 853.68 455.23 C 855.82 452.46, 857.27 450.86, 859.98 448.28 C 862.68 445.71, 864.37 444.20, 867.19 442.36 C 870.01 440.53, 871.72 440.14, 874.08 439.10 C 876.44 438.06, 877.46 437.61, 878.97 437.16 C 880.49 436.70, 881.01 436.52, 881.66 436.83 C 882.32 437.14, 882.26 437.64, 882.26 438.72 C 882.26 439.79, 882.08 440.50, 881.66 442.20 C 881.23 443.90, 880.78 445.07, 880.13 447.22 C 879.47 449.37, 879.06 450.69, 878.38 452.96 C 877.69 455.22, 876.96 456.49, 876.72 458.55 C 876.48 460.62, 876.46 461.86, 877.16 463.28 C 877.86 464.69, 878.74 465.22, 880.20 465.61 C 881.67 466.00, 882.50 465.91, 884.49 465.24 C 886.49 464.58, 887.74 464.01, 890.18 462.27 C 892.61 460.54, 893.92 458.94, 896.67 456.58 C 899.42 454.22, 900.91 452.80, 903.92 450.48 C 906.94 448.15, 908.64 446.84, 911.75 444.95 C 914.86 443.06, 916.85 442.32, 919.47 441.04 C 922.08 439.76, 923.30 439.20, 924.82 438.53 C 926.34 437.87, 926.70 437.65, 927.08 437.73 C 927.46 437.81, 927.22 437.93, 926.71 438.93 C 926.19 439.94, 925.51 440.76, 924.50 442.73 C 923.49 444.70, 922.71 446.14, 921.65 448.78 C 920.59 451.43, 920.02 453.19, 919.19 455.97 C 918.37 458.75, 917.90 460.24, 917.53 462.68 C 917.16 465.12, 916.84 466.27, 917.33 468.19 C 917.81 470.11, 918.36 471.19, 919.96 472.29 C 921.56 473.38, 922.84 473.66, 925.32 473.66 C 927.79 473.66, 929.55 473.24, 932.32 472.28 C 935.09 471.32, 936.95 470.36, 939.17 468.85 C 941.38 467.33, 942.75 465.90, 943.40 464.72 C 944.05 463.54, 943.71 463.06, 942.42 462.96 C 941.13 462.87, 939.38 463.51, 936.95 464.25 C 934.52 464.98, 932.72 465.68, 930.26 466.62 C 927.80 467.56, 926.42 468.36, 924.66 468.95 C 922.90 469.54, 922.26 469.79, 921.47 469.56 C 920.69 469.33, 920.62 468.93, 920.73 467.78 C 920.84 466.62, 921.32 465.79, 922.04 463.78 C 922.75 461.77, 923.29 460.28, 924.30 457.72 C 925.30 455.17, 926.01 453.60, 927.08 450.99 C 928.15 448.38, 929.05 447.04, 929.67 444.68 C 930.28 442.32, 930.48 440.96, 930.17 439.19 C 929.86 437.43, 929.37 436.69, 928.12 435.86 C 926.88 435.03, 926.05 434.79, 923.94 435.04 C 921.83 435.28, 920.42 435.76, 917.58 437.09 C 914.73 438.42, 912.91 439.64, 909.72 441.69 C 906.52 443.75, 904.77 445.10, 901.62 447.38 C 898.46 449.66, 896.87 451.01, 893.94 453.08 C 891.01 455.14, 889.27 456.10, 886.96 457.72 C 884.65 459.33, 883.71 460.11, 882.39 461.15 C 881.07 462.18, 880.83 462.60, 880.36 462.88 C 879.88 463.17, 879.82 463.20, 880.01 462.57 C 880.19 461.94, 880.60 461.32, 881.30 459.75 C 882.01 458.17, 882.70 456.90, 883.53 454.70 C 884.36 452.50, 884.84 451.10, 885.46 448.73 C 886.09 446.36, 886.56 445.06, 886.65 442.87 C 886.75 440.67, 886.65 439.48, 885.92 437.77 C 885.19 436.05, 884.52 435.10, 883.01 434.27 C 881.51 433.44, 880.51 433.45, 878.38 433.61 C 876.25 433.77, 875.05 433.96, 872.37 435.05 C 869.69 436.14, 867.98 436.98, 864.97 439.05 C 861.96 441.12, 860.24 442.75, 857.31 445.41 C 854.37 448.06, 852.88 449.66, 850.32 452.32 C 847.76 454.98, 846.33 456.31, 844.51 458.70 C 842.69 461.08, 841.93 462.47, 841.21 464.23 C 840.49 466.00, 840.67 466.80, 840.90 467.53 C 841.14 468.25, 841.74 468.26, 842.38 467.86 C 843.01 467.46, 843.37 466.83, 844.06 465.53 C 844.76 464.22, 845.25 463.31, 845.86 461.35 C 846.47 459.38, 846.79 457.96, 847.12 455.71 C 847.46 453.45, 847.57 452.21, 847.56 450.07 C 847.54 447.93, 847.49 446.88, 847.04 444.99 C 846.59 443.10, 846.31 441.88, 845.31 440.61 C 844.32 439.33, 843.43 439.11, 842.08 438.62 C 840.72 438.13, 839.87 437.85, 838.54 438.17 C 837.22 438.49, 836.37 439.25, 835.46 440.20 C 834.56 441.15, 834.24 441.87, 834.04 442.93 C 833.83 443.99, 833.95 444.84, 834.44 445.51 C 834.92 446.17, 835.70 446.35, 836.47 446.26"
        style="stroke: #f2f5f4; fill: #f2f5f4;"/>
    <path
        d="M 1013.31,443.72 C 1013.29 442.73, 1012.81 441.49, 1011.64 440.20 C 1010.48 438.91, 1009.48 438.21, 1007.48 437.27 C 1005.48 436.34, 1004.18 435.83, 1001.63 435.51 C 999.08 435.20, 997.77 435.14, 994.73 435.72 C 991.68 436.30, 989.63 437.10, 986.40 438.41 C 983.18 439.72, 981.75 440.59, 978.58 442.27 C 975.42 443.96, 973.66 444.79, 970.60 446.82 C 967.54 448.85, 965.92 450.07, 963.29 452.43 C 960.65 454.79, 959.15 456.06, 957.42 458.60 C 955.69 461.14, 955.11 462.66, 954.64 465.13 C 954.16 467.60, 954.26 468.88, 955.04 470.95 C 955.81 473.02, 956.59 474.13, 958.52 475.47 C 960.46 476.82, 961.85 477.42, 964.70 477.67 C 967.54 477.92, 969.26 477.57, 972.76 476.74 C 976.26 475.92, 978.28 475.16, 982.19 473.54 C 986.10 471.91, 988.28 470.79, 992.31 468.61 C 996.34 466.43, 998.45 465.06, 1002.35 462.63 C 1006.25 460.19, 1008.40 458.78, 1011.81 456.43 C 1015.21 454.07, 1016.92 452.97, 1019.39 450.86 C 1021.86 448.75, 1022.97 447.67, 1024.15 445.88 C 1025.34 444.10, 1025.68 442.91, 1025.31 441.91 C 1024.94 440.92, 1023.88 440.60, 1022.30 440.92 C 1020.71 441.23, 1019.48 441.75, 1017.39 443.49 C 1015.30 445.23, 1014.06 446.87, 1011.85 449.62 C 1009.64 452.37, 1008.27 454.33, 1006.33 457.24 C 1004.39 460.15, 1003.23 461.65, 1002.16 464.16 C 1001.08 466.67, 1001.12 467.86, 1000.97 469.78 C 1000.81 471.69, 1000.96 472.60, 1001.40 473.73 C 1001.84 474.87, 1002.60 475.25, 1003.17 475.45 C 1003.75 475.66, 1004.11 475.20, 1004.27 474.76 C 1004.43 474.32, 1003.93 474.10, 1003.99 473.23 C 1004.05 472.37, 1004.12 471.84, 1004.56 470.41 C 1005.00 468.99, 1005.08 468.19, 1006.21 466.09 C 1007.33 464.00, 1008.25 462.55, 1010.18 459.93 C 1012.10 457.31, 1013.61 455.48, 1015.83 453.00 C 1018.06 450.51, 1019.67 449.41, 1021.31 447.50 C 1022.96 445.60, 1023.47 444.64, 1024.04 443.48 C 1024.62 442.33, 1024.72 441.74, 1024.19 441.73 C 1023.66 441.73, 1022.86 442.22, 1021.39 443.45 C 1019.91 444.69, 1019.12 445.85, 1016.81 447.91 C 1014.51 449.97, 1013.10 451.32, 1009.87 453.73 C 1006.65 456.15, 1004.50 457.57, 1000.69 459.98 C 996.87 462.38, 994.76 463.72, 990.80 465.75 C 986.84 467.78, 984.66 468.79, 980.87 470.14 C 977.09 471.50, 975.06 471.96, 971.88 472.52 C 968.71 473.08, 967.27 473.03, 965.00 472.95 C 962.74 472.87, 961.90 472.76, 960.57 472.12 C 959.24 471.47, 958.78 470.94, 958.35 469.73 C 957.92 468.52, 957.88 467.78, 958.43 466.06 C 958.97 464.34, 959.56 463.28, 961.08 461.15 C 962.60 459.01, 963.70 457.63, 966.03 455.40 C 968.36 453.18, 969.85 451.94, 972.73 450.04 C 975.61 448.13, 977.38 447.36, 980.42 445.87 C 983.47 444.37, 984.92 443.59, 987.96 442.54 C 991.00 441.50, 993.01 441.11, 995.62 440.66 C 998.24 440.21, 999.08 440.05, 1001.03 440.30 C 1002.99 440.55, 1003.83 441.23, 1005.40 441.90 C 1006.97 442.57, 1007.63 443.01, 1008.90 443.65 C 1010.17 444.30, 1010.85 445.12, 1011.73 445.13 C 1012.62 445.15, 1013.32 444.70, 1013.31 443.72"
        style="stroke: #f2f5f4; fill: #f2f5f4;"/>
    <path
        d="M 1058.64,439.01 C 1057.81 439.17, 1057.28 439.62, 1055.99 440.80 C 1054.70 441.99, 1053.80 442.92, 1052.18 444.93 C 1050.55 446.93, 1049.64 448.37, 1047.87 450.83 C 1046.09 453.30, 1044.90 454.89, 1043.31 457.26 C 1041.71 459.64, 1040.83 460.80, 1039.88 462.72 C 1038.93 464.65, 1038.66 465.66, 1038.56 466.90 C 1038.46 468.14, 1038.75 468.56, 1039.38 468.92 C 1040.02 469.29, 1040.63 469.37, 1041.74 468.72 C 1042.84 468.06, 1043.49 467.41, 1044.90 465.65 C 1046.31 463.88, 1046.93 462.43, 1048.78 459.89 C 1050.63 457.34, 1051.72 455.64, 1054.15 452.91 C 1056.57 450.17, 1057.98 448.64, 1060.90 446.21 C 1063.81 443.78, 1065.58 442.60, 1068.71 440.77 C 1071.83 438.94, 1073.68 438.19, 1076.53 437.07 C 1079.39 435.94, 1080.74 435.55, 1082.99 435.15 C 1085.23 434.75, 1086.23 434.84, 1087.77 435.08 C 1089.31 435.33, 1089.95 435.53, 1090.69 436.38 C 1091.42 437.24, 1091.36 437.82, 1091.46 439.36 C 1091.56 440.91, 1091.66 442.01, 1091.18 444.11 C 1090.69 446.20, 1090.21 447.32, 1089.05 449.82 C 1087.89 452.32, 1086.86 453.92, 1085.40 456.61 C 1083.93 459.31, 1082.97 460.80, 1081.71 463.31 C 1080.46 465.82, 1079.73 467.07, 1079.10 469.16 C 1078.48 471.26, 1078.41 472.34, 1078.58 473.79 C 1078.75 475.23, 1079.42 475.79, 1079.94 476.38 C 1080.47 476.97, 1080.85 476.79, 1081.20 476.75 C 1081.55 476.71, 1081.58 476.41, 1081.70 476.17 C 1081.83 475.93, 1081.77 476.00, 1081.83 475.55 C 1081.89 475.09, 1081.76 474.87, 1082.01 473.90 C 1082.26 472.93, 1082.24 472.35, 1083.06 470.70 C 1083.88 469.05, 1084.81 468.00, 1086.13 465.66 C 1087.45 463.31, 1088.13 461.69, 1089.65 458.95 C 1091.17 456.22, 1092.45 454.77, 1093.73 451.98 C 1095.02 449.19, 1095.70 447.68, 1096.09 445.00 C 1096.48 442.32, 1096.24 440.80, 1095.67 438.60 C 1095.09 436.40, 1094.63 435.43, 1093.21 434.00 C 1091.79 432.57, 1090.76 432.03, 1088.59 431.45 C 1086.42 430.86, 1085.06 430.68, 1082.34 431.06 C 1079.63 431.44, 1078.13 432.05, 1075.02 433.36 C 1071.92 434.67, 1070.11 435.60, 1066.82 437.60 C 1063.52 439.60, 1061.69 440.86, 1058.56 443.35 C 1055.44 445.84, 1053.95 447.40, 1051.18 450.05 C 1048.42 452.70, 1046.95 454.14, 1044.73 456.60 C 1042.52 459.05, 1041.31 460.29, 1040.09 462.32 C 1038.87 464.35, 1038.74 465.47, 1038.62 466.76 C 1038.50 468.05, 1038.96 468.47, 1039.50 468.77 C 1040.05 469.06, 1040.49 468.95, 1041.33 468.22 C 1042.17 467.49, 1042.45 466.70, 1043.70 465.13 C 1044.95 463.56, 1045.88 462.57, 1047.59 460.36 C 1049.30 458.15, 1050.43 456.50, 1052.27 454.08 C 1054.10 451.67, 1055.30 450.46, 1056.75 448.30 C 1058.20 446.13, 1058.83 444.91, 1059.51 443.26 C 1060.20 441.60, 1060.34 440.86, 1060.17 440.01 C 1059.99 439.16, 1059.48 438.85, 1058.64 439.01"
        style="stroke: #f2f5f4; fill: #f2f5f4;"/>
    <path
        d="M 1127.12,436.76 C 1126.53 436.62, 1126.39 436.77, 1125.47 437.22 C 1124.55 437.66, 1123.86 437.69, 1122.54 439.00 C 1121.22 440.30, 1120.36 441.58, 1118.88 443.74 C 1117.39 445.90, 1116.52 447.43, 1115.12 449.82 C 1113.72 452.20, 1112.88 453.53, 1111.89 455.67 C 1110.90 457.80, 1110.30 459.02, 1110.18 460.48 C 1110.05 461.95, 1110.50 462.68, 1111.25 462.97 C 1112.01 463.26, 1112.70 462.96, 1113.95 461.93 C 1115.20 460.91, 1115.86 460.03, 1117.51 457.85 C 1119.16 455.67, 1119.99 453.88, 1122.21 451.02 C 1124.43 448.16, 1125.76 446.39, 1128.60 443.55 C 1131.44 440.71, 1133.21 439.23, 1136.40 436.84 C 1139.59 434.45, 1141.45 433.20, 1144.54 431.60 C 1147.62 430.00, 1149.24 429.53, 1151.82 428.83 C 1154.41 428.13, 1155.78 428.11, 1157.48 428.12 C 1159.17 428.13, 1159.64 428.11, 1160.30 428.89 C 1160.96 429.67, 1160.82 430.32, 1160.78 432.01 C 1160.75 433.70, 1160.48 434.90, 1160.13 437.34 C 1159.78 439.78, 1159.72 441.33, 1159.05 444.21 C 1158.38 447.10, 1157.84 448.75, 1156.79 451.78 C 1155.74 454.81, 1154.79 456.53, 1153.79 459.37 C 1152.78 462.22, 1152.35 463.69, 1151.76 466.01 C 1151.17 468.34, 1150.90 469.35, 1150.85 471.00 C 1150.80 472.64, 1151.11 473.59, 1151.53 474.25 C 1151.95 474.92, 1152.46 474.85, 1152.95 474.34 C 1153.44 473.82, 1153.37 473.07, 1153.98 471.67 C 1154.59 470.28, 1155.17 469.52, 1156.01 467.37 C 1156.85 465.22, 1157.17 463.75, 1158.18 460.94 C 1159.19 458.12, 1159.94 456.40, 1161.06 453.30 C 1162.18 450.19, 1162.93 448.50, 1163.79 445.43 C 1164.65 442.35, 1165.12 440.71, 1165.35 437.91 C 1165.58 435.12, 1165.50 433.68, 1164.93 431.45 C 1164.36 429.22, 1163.93 428.16, 1162.52 426.76 C 1161.10 425.37, 1160.20 424.89, 1157.85 424.49 C 1155.49 424.09, 1153.76 423.98, 1150.75 424.76 C 1147.74 425.54, 1146.08 426.53, 1142.79 428.39 C 1139.51 430.25, 1137.66 431.54, 1134.31 434.04 C 1130.96 436.54, 1129.14 438.07, 1126.05 440.87 C 1122.96 443.68, 1121.50 445.37, 1118.84 448.07 C 1116.18 450.77, 1114.42 452.01, 1112.75 454.37 C 1111.08 456.73, 1110.83 458.22, 1110.49 459.88 C 1110.15 461.55, 1110.50 462.25, 1111.05 462.68 C 1111.60 463.11, 1112.18 462.91, 1113.23 462.04 C 1114.29 461.17, 1114.97 460.13, 1116.34 458.32 C 1117.70 456.51, 1118.49 455.21, 1120.05 452.99 C 1121.62 450.78, 1122.78 449.40, 1124.16 447.26 C 1125.54 445.11, 1126.17 443.81, 1126.96 442.29 C 1127.75 440.76, 1127.82 440.50, 1128.11 439.63 C 1128.40 438.76, 1128.61 438.50, 1128.41 437.92 C 1128.22 437.35, 1127.71 436.90, 1127.12 436.76"
        style="stroke: #f2f5f4; fill: #f2f5f4;"/>
    <path
        d="M 1214.26,410.07 C 1213.57 410.27, 1212.91 410.68, 1212.47 411.77 C 1212.03 412.85, 1212.02 413.76, 1212.05 415.50 C 1212.09 417.24, 1212.19 418.11, 1212.66 420.45 C 1213.12 422.79, 1213.60 424.32, 1214.38 427.21 C 1215.16 430.10, 1215.83 431.62, 1216.57 434.90 C 1217.30 438.18, 1217.81 440.01, 1218.05 443.61 C 1218.29 447.20, 1218.05 449.23, 1217.77 452.89 C 1217.48 456.55, 1217.24 458.60, 1216.63 461.91 C 1216.01 465.22, 1215.66 466.68, 1214.69 469.43 C 1213.72 472.18, 1213.09 473.49, 1211.78 475.65 C 1210.48 477.81, 1209.74 478.80, 1208.19 480.22 C 1206.64 481.63, 1205.85 481.94, 1204.05 482.72 C 1202.25 483.51, 1201.00 483.73, 1199.18 484.12 C 1197.37 484.52, 1196.42 484.65, 1194.98 484.68 C 1193.54 484.72, 1192.88 484.59, 1191.98 484.29 C 1191.09 483.98, 1190.82 483.75, 1190.50 483.16 C 1190.17 482.58, 1190.53 482.18, 1190.36 481.35 C 1190.19 480.52, 1190.23 479.52, 1189.64 479.01 C 1189.06 478.51, 1188.12 478.30, 1187.45 478.82 C 1186.77 479.34, 1186.30 480.37, 1186.28 481.63 C 1186.25 482.90, 1186.50 483.91, 1187.32 485.15 C 1188.13 486.39, 1188.86 487.04, 1190.36 487.83 C 1191.86 488.63, 1192.85 488.94, 1194.81 489.11 C 1196.77 489.28, 1197.96 489.15, 1200.18 488.66 C 1202.39 488.18, 1203.72 487.74, 1205.89 486.67 C 1208.06 485.60, 1209.09 485.09, 1211.03 483.34 C 1212.96 481.58, 1214.05 480.43, 1215.55 477.90 C 1217.05 475.38, 1217.58 473.78, 1218.54 470.71 C 1219.51 467.64, 1219.78 466.08, 1220.38 462.57 C 1220.97 459.07, 1221.19 457.01, 1221.50 453.18 C 1221.80 449.35, 1222.03 447.22, 1221.89 443.41 C 1221.75 439.60, 1221.29 437.60, 1220.79 434.13 C 1220.29 430.67, 1219.93 429.03, 1219.39 426.08 C 1218.86 423.13, 1218.57 421.60, 1218.12 419.37 C 1217.68 417.13, 1217.51 416.33, 1217.17 414.89 C 1216.83 413.45, 1216.68 412.99, 1216.43 412.17 C 1216.18 411.34, 1216.36 411.17, 1215.93 410.75 C 1215.49 410.33, 1214.95 409.86, 1214.26 410.07"
        style="stroke: #f2f5f4; fill: #f2f5f4;"/>
    <path
        d="M 1276.17,461.26 C 1276.77 461.04, 1277.12 460.92, 1277.45 460.16 C 1277.78 459.40, 1278.01 458.66, 1277.81 457.46 C 1277.61 456.25, 1277.30 455.48, 1276.45 454.14 C 1275.61 452.80, 1275.01 451.95, 1273.58 450.76 C 1272.15 449.57, 1271.23 448.95, 1269.30 448.18 C 1267.38 447.40, 1266.19 447.15, 1263.94 446.88 C 1261.69 446.60, 1260.62 446.50, 1258.05 446.80 C 1255.48 447.11, 1253.84 447.37, 1251.09 448.41 C 1248.34 449.45, 1246.77 450.19, 1244.29 452.01 C 1241.81 453.83, 1240.61 455.05, 1238.67 457.51 C 1236.74 459.96, 1235.64 461.39, 1234.61 464.27 C 1233.58 467.15, 1233.27 468.95, 1233.52 471.90 C 1233.76 474.86, 1234.30 476.51, 1235.84 479.06 C 1237.39 481.60, 1238.63 482.96, 1241.24 484.63 C 1243.84 486.30, 1245.60 486.87, 1248.88 487.41 C 1252.15 487.96, 1254.06 487.67, 1257.62 487.36 C 1261.18 487.05, 1263.20 486.84, 1266.67 485.85 C 1270.15 484.87, 1271.90 484.12, 1274.99 482.43 C 1278.07 480.74, 1279.76 479.68, 1282.10 477.40 C 1284.43 475.13, 1285.42 473.73, 1286.67 471.06 C 1287.91 468.38, 1288.02 466.66, 1288.30 464.03 C 1288.59 461.40, 1288.48 459.92, 1288.09 457.89 C 1287.69 455.86, 1287.06 455.10, 1286.33 453.89 C 1285.60 452.69, 1285.09 452.15, 1284.44 451.87 C 1283.80 451.58, 1283.34 451.85, 1283.11 452.47 C 1282.88 453.10, 1283.15 453.79, 1283.28 454.99 C 1283.41 456.19, 1283.68 456.74, 1283.78 458.46 C 1283.88 460.17, 1284.00 461.39, 1283.78 463.56 C 1283.56 465.72, 1283.62 467.11, 1282.69 469.28 C 1281.76 471.44, 1281.07 472.47, 1279.13 474.39 C 1277.20 476.32, 1275.74 477.37, 1273.03 478.89 C 1270.32 480.41, 1268.74 481.11, 1265.59 481.97 C 1262.44 482.83, 1260.49 482.98, 1257.29 483.20 C 1254.10 483.42, 1252.34 483.56, 1249.62 483.08 C 1246.89 482.60, 1245.68 482.07, 1243.68 480.80 C 1241.67 479.54, 1240.75 478.59, 1239.60 476.75 C 1238.45 474.90, 1238.04 473.75, 1237.91 471.58 C 1237.78 469.41, 1238.05 468.12, 1238.94 465.91 C 1239.83 463.69, 1240.72 462.47, 1242.36 460.50 C 1244.01 458.52, 1245.06 457.50, 1247.17 456.05 C 1249.28 454.60, 1250.60 454.09, 1252.91 453.22 C 1255.22 452.35, 1256.62 452.02, 1258.70 451.71 C 1260.79 451.40, 1261.60 451.43, 1263.33 451.66 C 1265.06 451.90, 1265.97 452.29, 1267.35 452.88 C 1268.73 453.48, 1269.35 453.83, 1270.24 454.64 C 1271.13 455.45, 1271.35 456.09, 1271.80 456.92 C 1272.26 457.75, 1272.24 458.09, 1272.51 458.79 C 1272.79 459.48, 1272.79 459.88, 1273.18 460.38 C 1273.58 460.88, 1273.88 461.10, 1274.48 461.27 C 1275.07 461.45, 1275.58 461.48, 1276.17 461.26"
        style="stroke: #f2f5f4; fill: #f2f5f4;"/>
    <path
        d="M 1315.07,453.08 C 1314.17 453.23, 1313.37 453.70, 1312.00 454.98 C 1310.64 456.27, 1309.90 457.37, 1308.26 459.50 C 1306.63 461.63, 1305.76 463.20, 1303.83 465.64 C 1301.90 468.07, 1300.42 469.37, 1298.61 471.68 C 1296.79 473.98, 1295.62 475.35, 1294.74 477.14 C 1293.87 478.94, 1293.90 479.97, 1294.24 480.66 C 1294.58 481.35, 1295.26 481.28, 1296.45 480.62 C 1297.64 479.95, 1298.42 479.34, 1300.20 477.35 C 1301.97 475.36, 1302.64 473.61, 1305.33 470.66 C 1308.02 467.71, 1309.95 465.62, 1313.65 462.60 C 1317.34 459.57, 1319.82 457.97, 1323.82 455.52 C 1327.81 453.08, 1330.05 451.93, 1333.63 450.38 C 1337.20 448.84, 1339.25 448.44, 1341.68 447.79 C 1344.12 447.14, 1344.92 446.88, 1345.79 447.13 C 1346.67 447.37, 1346.51 447.66, 1346.06 449.01 C 1345.62 450.36, 1345.03 451.39, 1343.58 453.88 C 1342.12 456.36, 1341.08 458.23, 1338.80 461.44 C 1336.52 464.65, 1334.81 466.72, 1332.18 469.93 C 1329.56 473.14, 1327.86 474.87, 1325.68 477.49 C 1323.50 480.11, 1322.44 481.18, 1321.27 483.03 C 1320.10 484.87, 1320.07 485.71, 1319.84 486.72 C 1319.60 487.73, 1319.93 487.75, 1320.09 488.06 C 1320.25 488.36, 1320.35 488.31, 1320.64 488.26 C 1320.93 488.20, 1320.81 488.35, 1321.55 487.78 C 1322.29 487.21, 1322.89 486.94, 1324.34 485.39 C 1325.78 483.85, 1326.63 482.68, 1328.78 480.07 C 1330.94 477.46, 1332.45 475.57, 1335.12 472.34 C 1337.79 469.11, 1339.60 467.17, 1342.13 463.92 C 1344.66 460.67, 1346.33 459.04, 1347.76 456.10 C 1349.19 453.17, 1349.45 451.48, 1349.28 449.26 C 1349.10 447.03, 1348.58 446.02, 1346.90 444.96 C 1345.22 443.90, 1343.81 443.48, 1340.88 443.96 C 1337.95 444.44, 1335.98 445.57, 1332.25 447.36 C 1328.51 449.14, 1326.33 450.36, 1322.20 452.88 C 1318.07 455.40, 1315.55 457.00, 1311.59 459.97 C 1307.63 462.93, 1305.50 464.90, 1302.39 467.69 C 1299.27 470.49, 1297.72 471.70, 1296.03 473.94 C 1294.34 476.19, 1294.16 477.46, 1293.93 478.92 C 1293.70 480.39, 1294.04 481.08, 1294.87 481.25 C 1295.70 481.43, 1296.52 481.04, 1298.07 479.80 C 1299.62 478.56, 1300.66 477.24, 1302.62 475.06 C 1304.58 472.89, 1305.82 471.39, 1307.88 468.94 C 1309.93 466.49, 1311.37 465.10, 1312.89 462.80 C 1314.42 460.50, 1314.78 459.13, 1315.50 457.42 C 1316.23 455.71, 1316.61 455.11, 1316.52 454.25 C 1316.43 453.38, 1315.98 452.93, 1315.07 453.08"
        style="stroke: #f2f5f4; fill: #f2f5f4;"/>
    <path
        d="M 1373.66,470.33 C 1374.14 471.00, 1374.68 472.04, 1375.94 472.01 C 1377.20 471.99, 1379.33 471.29, 1379.95 470.19 C 1380.57 469.10, 1380.06 467.23, 1379.05 466.54 C 1378.04 465.84, 1376.01 466.28, 1374.91 466.72 C 1373.81 467.15, 1373.78 467.97, 1373.53 468.69 C 1373.28 469.41, 1373.18 469.67, 1373.66 470.33"
        style="stroke: #f2f5f4; fill: #f2f5f4;"/>
    <path
        d="M 1392.37,462.53 C 1393.50 462.46, 1394.76 461.78, 1396.68 460.64 C 1398.60 459.49, 1400.00 458.56, 1401.96 456.81 C 1403.93 455.06, 1405.29 453.83, 1406.50 451.89 C 1407.71 449.96, 1408.02 448.79, 1408.02 447.13 C 1408.02 445.46, 1407.80 444.41, 1406.49 443.58 C 1405.18 442.74, 1403.95 442.38, 1401.47 442.96 C 1398.99 443.54, 1397.59 444.50, 1394.09 446.46 C 1390.58 448.42, 1388.02 450.04, 1383.93 452.75 C 1379.84 455.46, 1377.34 457.07, 1373.64 460.03 C 1369.94 462.98, 1367.95 464.66, 1365.42 467.54 C 1362.90 470.42, 1361.59 471.83, 1361.01 474.43 C 1360.44 477.03, 1360.97 478.65, 1362.56 480.53 C 1364.16 482.41, 1365.77 483.17, 1368.99 483.82 C 1372.21 484.48, 1374.33 484.09, 1378.66 483.81 C 1382.99 483.53, 1385.78 483.22, 1390.64 482.44 C 1395.49 481.66, 1398.02 480.89, 1402.93 479.89 C 1407.85 478.90, 1411.00 478.31, 1415.23 477.45 C 1419.47 476.60, 1421.33 476.29, 1424.11 475.62 C 1426.88 474.95, 1428.14 474.67, 1429.11 474.09 C 1430.08 473.52, 1430.08 473.08, 1428.97 472.72 C 1427.85 472.37, 1426.41 472.00, 1423.53 472.32 C 1420.65 472.64, 1418.81 473.38, 1414.57 474.31 C 1410.33 475.24, 1407.22 475.97, 1402.34 476.97 C 1397.46 477.97, 1394.94 478.69, 1390.18 479.32 C 1385.41 479.95, 1382.61 480.03, 1378.50 480.11 C 1374.40 480.19, 1372.44 480.04, 1369.67 479.71 C 1366.90 479.38, 1365.79 479.33, 1364.67 478.45 C 1363.55 477.58, 1363.40 477.03, 1364.07 475.31 C 1364.74 473.59, 1365.70 472.41, 1368.02 469.86 C 1370.35 467.32, 1372.12 465.41, 1375.68 462.59 C 1379.24 459.76, 1381.73 458.18, 1385.82 455.73 C 1389.90 453.27, 1392.67 451.97, 1396.10 450.29 C 1399.52 448.61, 1401.02 448.24, 1402.95 447.32 C 1404.88 446.40, 1405.29 445.89, 1405.73 445.69 C 1406.16 445.49, 1405.77 445.72, 1405.13 446.30 C 1404.48 446.88, 1403.92 447.35, 1402.50 448.59 C 1401.09 449.84, 1399.82 450.86, 1398.04 452.55 C 1396.27 454.23, 1395.02 455.36, 1393.62 457.04 C 1392.22 458.72, 1391.29 459.85, 1391.04 460.95 C 1390.79 462.04, 1391.24 462.59, 1392.37 462.53"
        style="stroke: #f2f5f4; fill: #f2f5f4;"/>
    <path
        d="M 1487.08,449.06 C 1487.78 448.60, 1488.34 447.60, 1488.31 446.34 C 1488.29 445.07, 1488.03 444.03, 1486.94 442.75 C 1485.85 441.48, 1484.85 440.69, 1482.85 439.97 C 1480.85 439.25, 1479.65 439.15, 1476.95 439.15 C 1474.26 439.15, 1472.57 439.27, 1469.38 439.98 C 1466.19 440.68, 1464.22 441.36, 1461.01 442.66 C 1457.79 443.95, 1456.14 444.74, 1453.31 446.45 C 1450.47 448.17, 1449.02 449.21, 1446.83 451.23 C 1444.64 453.24, 1443.51 454.33, 1442.35 456.52 C 1441.19 458.71, 1441.02 459.99, 1441.03 462.18 C 1441.03 464.38, 1441.33 465.49, 1442.36 467.49 C 1443.39 469.49, 1444.13 470.48, 1446.19 472.17 C 1448.25 473.86, 1450.11 474.65, 1452.65 475.95 C 1455.19 477.24, 1456.69 477.66, 1458.87 478.63 C 1461.06 479.60, 1462.14 480.07, 1463.58 480.80 C 1465.02 481.53, 1465.65 481.79, 1466.06 482.27 C 1466.47 482.75, 1466.22 482.77, 1465.63 483.20 C 1465.04 483.63, 1464.50 483.88, 1463.10 484.42 C 1461.71 484.96, 1460.70 485.38, 1458.66 485.91 C 1456.61 486.45, 1455.43 486.72, 1452.87 487.10 C 1450.30 487.48, 1448.78 487.63, 1445.81 487.81 C 1442.85 487.98, 1441.06 488.00, 1438.03 487.97 C 1435.00 487.94, 1433.19 487.63, 1430.68 487.66 C 1428.16 487.68, 1427.10 487.77, 1425.45 488.10 C 1423.80 488.44, 1423.00 488.82, 1422.42 489.34 C 1421.84 489.85, 1421.94 490.28, 1422.55 490.68 C 1423.15 491.08, 1423.86 490.98, 1425.43 491.34 C 1427.01 491.69, 1427.92 492.17, 1430.42 492.46 C 1432.93 492.75, 1434.86 492.77, 1437.98 492.80 C 1441.10 492.83, 1442.92 492.70, 1446.03 492.60 C 1449.14 492.50, 1450.69 492.59, 1453.51 492.30 C 1456.34 492.01, 1457.75 491.90, 1460.16 491.16 C 1462.57 490.42, 1463.91 489.86, 1465.56 488.62 C 1467.21 487.37, 1467.77 486.46, 1468.41 484.95 C 1469.04 483.45, 1469.19 482.60, 1468.72 481.09 C 1468.25 479.58, 1467.54 478.81, 1466.04 477.41 C 1464.55 476.01, 1463.42 475.38, 1461.25 474.08 C 1459.08 472.78, 1457.62 472.10, 1455.19 470.90 C 1452.76 469.69, 1450.97 469.14, 1449.08 468.05 C 1447.18 466.97, 1446.59 466.65, 1445.72 465.48 C 1444.85 464.30, 1444.73 463.58, 1444.75 462.20 C 1444.76 460.82, 1444.78 460.08, 1445.81 458.58 C 1446.85 457.07, 1447.95 456.36, 1449.91 454.69 C 1451.86 453.01, 1453.05 451.76, 1455.59 450.19 C 1458.13 448.63, 1459.66 447.92, 1462.61 446.87 C 1465.56 445.82, 1467.46 445.40, 1470.34 444.93 C 1473.22 444.46, 1474.77 444.56, 1477.00 444.52 C 1479.23 444.48, 1480.11 444.45, 1481.48 444.71 C 1482.85 444.96, 1483.28 445.37, 1483.85 445.79 C 1484.43 446.21, 1484.16 446.23, 1484.35 446.81 C 1484.54 447.38, 1484.26 448.23, 1484.81 448.68 C 1485.35 449.13, 1486.38 449.53, 1487.08 449.06"
        style="stroke: #f2f5f4; fill: #f2f5f4;"/>
</svg>
